<?xml version="1.0" encoding="UTF-8" standalone="no"?>
<!-- Created with Inkscape (http://www.inkscape.org/) -->

<svg
   xmlns:dc="http://purl.org/dc/elements/1.1/"
   xmlns:cc="http://creativecommons.org/ns#"
   xmlns:rdf="http://www.w3.org/1999/02/22-rdf-syntax-ns#"
   xmlns:svg="http://www.w3.org/2000/svg"
   xmlns="http://www.w3.org/2000/svg"
   xmlns:sodipodi="http://sodipodi.sourceforge.net/DTD/sodipodi-0.dtd"
   xmlns:inkscape="http://www.inkscape.org/namespaces/inkscape"
   width="12.047244"
   height="12.124"
   viewBox="0 0 12.047244 12.124"
   id="svg28960"
   version="1.1"
   inkscape:version="0.91 r13725"
   sodipodi:docname="Logo Tramway Bordeaux ligne B.svg">
  <defs
     id="defs28962" />
  <sodipodi:namedview
     id="base"
     pagecolor="#ffffff"
     bordercolor="#666666"
     borderopacity="1.0"
     inkscape:pageopacity="0.0"
     inkscape:pageshadow="2"
     inkscape:zoom="22.4"
     inkscape:cx="5.3144326"
     inkscape:cy="-4.1669505"
     inkscape:document-units="px"
     inkscape:current-layer="layer1"
     showgrid="false"
     fit-margin-top="0"
     fit-margin-left="0"
     fit-margin-right="0"
     fit-margin-bottom="0"
     inkscape:window-width="1920"
     inkscape:window-height="1017"
     inkscape:window-x="-8"
     inkscape:window-y="-8"
     inkscape:window-maximized="1"
     units="px" />
  <metadata
     id="metadata28965">
    <rdf:RDF>
      <cc:Work
         rdf:about="">
        <dc:format>image/svg+xml</dc:format>
        <dc:type
           rdf:resource="http://purl.org/dc/dcmitype/StillImage" />
        <dc:title></dc:title>
      </cc:Work>
    </rdf:RDF>
  </metadata>
  <g
     inkscape:label="Calque 1"
     inkscape:groupmode="layer"
     id="layer1"
     transform="translate(-285.50917,-506.15756)">
    <g
       id="g4708"
       transform="translate(0,-0.13392857)">
      <g
         style="fill:#ed164b;fill-opacity:1"
         transform="matrix(1.25,0,0,-1.25,297.34792,512.36032)"
         id="g23130">
        <path
           inkscape:connector-curvature="0"
           id="path23132"
           style="fill:#ed164b;fill-opacity:1;fill-rule:nonzero;stroke:none"
           d="m 0,0 c 0,2.615 -2.119,4.734 -4.736,4.734 -2.616,0 -4.735,-2.119 -4.735,-4.734 0,-2.615 2.119,-4.737 4.735,-4.737 C -2.119,-4.737 0,-2.615 0,0" />
      </g>
      <g
         transform="matrix(1.25,0,0,-1.25,290.78605,512.68345)"
         id="g23134">
        <path
           inkscape:connector-curvature="0"
           id="path23136"
           style="fill:#ffffff;fill-opacity:1;fill-rule:evenodd;stroke:none"
           d="m 0,0 0.434,0 c 0.635,0 1.146,-0.227 1.146,-0.794 0,-0.596 -0.511,-0.822 -1.087,-0.822 -0.217,0 -0.368,0 -0.493,0.027 L 0,0 Z M 0,2.218 C 0.101,2.245 0.257,2.26 0.545,2.26 1.119,2.26 1.448,2.038 1.448,1.608 1.448,1.191 1.096,0.915 0.417,0.915 L 0,0.915 0,2.218 Z m -1.264,-4.687 c 0.283,-0.04 0.752,-0.086 1.381,-0.086 1.122,0 1.807,0.186 2.217,0.513 0.353,0.277 0.588,0.677 0.588,1.197 0,0.73 -0.478,1.223 -1.122,1.39 l 0,0.015 c 0.627,0.245 0.921,0.704 0.921,1.198 0,0.521 -0.277,0.906 -0.669,1.116 -0.411,0.241 -0.888,0.317 -1.668,0.317 -0.644,0 -1.315,-0.057 -1.648,-0.126 l 0,-5.534" />
      </g>
    </g>
  </g>
</svg>
